<svg xmlns="http://www.w3.org/2000/svg" xmlns:xlink="http://www.w3.org/1999/xlink" width="50" height="50" viewBox="0 0 50 50">
    <defs>
        <path id="a" d="M34.844 16.257V.097H0v32.319h34.844z"/>
    </defs>
    <g fill="none" fill-rule="evenodd">
        <circle cx="25" cy="25" r="25" fill="#FFF"/>
        <path fill="#42D31A" d="M15.604 21.16a1.2 1.2 0 1 0 0 2.4 1.2 1.2 0 0 0 0-2.4M27.455 21.035a1.292 1.292 0 1 0 0 2.584 1.292 1.292 0 0 0 0-2.584"/>
        <g transform="translate(8 9.137)">
            <mask id="b" fill="#fff">
                <use xlink:href="#a"/>
            </mask>
            <path fill="#42D31A" d="M30.634 16.339s.03 2.991-3.01 2.991H26.7v-1.938h.558s1.277.118 1.262-1.85c0 0-.25.797-2.04.797 0 0-2.54-.183-2.54-2.661v-.94s.058-2.57 2.848-2.775c0 0 1.1-.117 1.776.793v-.631h2.07v6.214zm-11.18 0c-1.889 0-3.42-1.41-3.42-3.15 0-1.739 1.531-3.148 3.42-3.148 1.89 0 3.421 1.41 3.421 3.149s-1.531 3.149-3.42 3.149zm-4.837-6.111v5.887h-2.04v-5.829c0-.792-.984-1.013-.984-1.013V7.218c3.259.132 3.024 3.01 3.024 3.01zm-3.67 3.259c-.015 2.769-2.878 2.848-2.878 2.848-1.107 0-1.732-.734-1.732-.734v.5H4.252V7.5c-.009 0-.01-.002 0-.004v.005c.13.02 2.085-.005 2.085-.005v3.289c.49-.836 1.908-.823 1.908-.823 3.088.288 2.702 3.524 2.702 3.524zM30.182.097H4.661A4.661 4.661 0 0 0 0 4.76v15.147a4.661 4.661 0 0 0 4.66 4.66h9.015l3.066 7.224s.211.626.722.626.722-.626.722-.626l3.066-7.223h8.931a4.661 4.661 0 0 0 4.662-4.661V4.759A4.661 4.661 0 0 0 30.182.098z" mask="url(#b)"/>
        </g>
        <path fill="#42D31A" d="M35.39 21.064a1.262 1.262 0 1 0 0 2.525 1.262 1.262 0 0 0 0-2.525"/>
    </g>
</svg>
