<svg xmlns="http://www.w3.org/2000/svg" width="60" height="60" viewBox="0 0 60 60">
    <path fill="#181828" fill-rule="evenodd" d="M42.115 18.606l2.597 2.596-19.327 19.471c-.385.385-.818.577-1.298.577-.481 0-.914-.192-1.299-.577l-8.076-8.077L17.308 30l6.779 6.779 18.028-18.173zM30 0c8.27 0 15.337 2.933 21.202 8.798C57.067 14.663 60 21.731 60 30c0 8.27-2.933 15.337-8.798 21.202C45.337 57.067 38.269 60 30 60c-8.27 0-15.337-2.933-21.202-8.798C2.933 45.337 0 38.269 0 30c0-8.27 2.933-15.337 8.798-21.202C14.663 2.933 21.731 0 30 0zm0 58c7.72 0 14.318-2.736 19.79-8.21C55.265 44.319 58 37.72 58 30c0-7.72-2.736-14.318-8.21-19.79C44.319 4.735 37.72 2 30 2c-7.72 0-14.318 2.736-19.79 8.21C4.735 15.681 2 22.28 2 30c0 7.72 2.736 14.318 8.21 19.79C15.681 55.265 22.28 58 30 58z"/>
</svg>
