<svg xmlns="http://www.w3.org/2000/svg" width="25" height="25" viewBox="0 0 25 25">
    <path fill="#4A90E2" fill-rule="evenodd" d="M17.548 7.752l1.082 1.082-8.053 8.113c-.16.16-.34.24-.54.24-.201 0-.382-.08-.542-.24L6.13 13.582 7.212 12.5l2.824 2.825 7.512-7.573zM12.5 0c3.446 0 6.39 1.222 8.834 3.666S25 9.054 25 12.5c0 3.446-1.222 6.39-3.666 8.834S15.946 25 12.5 25c-3.446 0-6.39-1.222-8.834-3.666S0 15.946 0 12.5c0-3.446 1.222-6.39 3.666-8.834S9.054 0 12.5 0zm0 23.5c3.033 0 5.625-1.075 7.775-3.225 2.15-2.15 3.225-4.742 3.225-7.775 0-3.033-1.075-5.625-3.225-7.775C18.125 2.575 15.533 1.5 12.5 1.5c-3.033 0-5.625 1.075-7.775 3.225C2.575 6.875 1.5 9.467 1.5 12.5c0 3.033 1.075 5.625 3.225 7.775 2.15 2.15 4.742 3.225 7.775 3.225z"/>
</svg>
